<?xml version="1.0" encoding="UTF-8"?>
<svg id="Layer_1" xmlns="http://www.w3.org/2000/svg" version="1.1" viewBox="0 0 546.4 277.1">
  <!-- Generator: Adobe Illustrator 29.1.0, SVG Export Plug-In . SVG Version: 2.1.0 Build 142)  -->
  <defs>
    <style>
      .st0 {
        fill: #fff;
      }

      .st1 {
        fill: #69478e;
      }
    </style>
  </defs>
  <g>
    <g>
      <path class="st0" d="M589.5,158.8c0-7-1-12.3-2.9-15.6-1.9-3.4-5.8-5.1-11.6-5.1h-4.2v-4.1h88.3c11.7,0,17.6,5.5,17.6,16.6v15.5h-4.1c0-15.9-8.6-23.8-25.9-23.8h-38.6v53.9h56v8.3h-56v58h36.3c9.5,0,17-1.7,22.4-5.2s9.7-9.3,12.9-17.6l4.1,1-7.3,19.7c-2.5,6.9-7.7,10.4-15.5,10.4h-71.5v-112h0Z"/>
      <path class="st0" d="M705.9,158.2c-2.8-8-5.7-13.5-8.8-16.5-3.1-3-7.8-4.7-14-5.3v-4.1c.7,0,1.7-.1,3-.2,1.3-.1,2.7-.2,4-.2,7.6,0,14.5,1.7,20.6,5.2s11.1,10.5,14.8,21.1l27.8,80,22.2-65.7-5-14.3c-2.8-8-5.7-13.5-8.8-16.5s-7.8-4.7-14-5.3v-4.1c.7,0,1.7-.1,3-.2,1.3-.1,2.7-.2,4-.2,7.6,0,14.5,1.7,20.6,5.2s11.1,10.5,14.8,21.1l27.8,80,35.6-104.2h8.9l-47.5,138.9h-4.1l-30.7-87.3-29.8,87.3h-4.1l-40.3-114.7h0Z"/>
      <path class="st0" d="M892.2,265.6c-9.7-6.2-17.2-14.7-22.5-25.4s-7.9-22.6-7.9-35.8,2.9-26,8.6-37.5,13.5-20.5,23.4-27.2c9.9-6.6,20.6-9.9,32.2-9.9s20.8,1.6,29.1,4.7c8.4,3.1,14.5,7.1,18.5,11.9,2.3,2.9,3.8,6.7,4.4,11.5s.8,11.3.8,19.6h-4.1c-2.6-13.4-7.5-23.3-14.5-29.7s-16.4-9.6-28-9.6-26.9,5.3-36.1,15.8c-9.1,10.5-13.7,27.4-13.7,50.6s1.8,21.1,5.3,30.5,9,17,16.5,22.9,16.8,8.8,28,8.8,18.9-2.4,26.4-7.3c7.5-4.8,14.3-12.1,20.2-21.8l4.1,3.1c-6.4,12.4-14.2,21.2-23.5,26.4s-20.5,7.8-33.5,7.8c-12.7-.1-24-3.2-33.7-9.4h0Z"/>
    </g>
    <path class="st0" d="M1043.2,2.2l5.5,47.7c.7,6.3,5.7,11.2,12,12l47.7,5.5-47.7,5.6c-6.3.7-11.2,5.7-12,12l-5.5,47.7-5.5-47.7c-.7-6.3-5.7-11.2-12-12l-47.7-5.5,47.7-5.5c6.3-.7,11.2-5.7,12-12,0,0,5.5-47.8,5.5-47.8Z"/>
  </g>
  <g>
    <g>
      <path class="st1" d="M23.1,158.8c0-7-1-12.3-2.9-15.6-1.9-3.4-5.8-5.1-11.6-5.1h-4.2v-4.1h88.3c11.7,0,17.6,5.5,17.6,16.6v15.5h-4.1c0-15.9-8.6-23.8-25.9-23.8h-38.6v53.9h56v8.3h-56v58h36.3c9.5,0,17-1.7,22.4-5.2s9.7-9.3,12.9-17.6l4.1,1-7.3,19.7c-2.5,6.9-7.7,10.4-15.5,10.4H23.1v-112h0Z"/>
      <path class="st1" d="M139.5,158.1c-2.8-8-5.7-13.5-8.8-16.5-3.1-3-7.8-4.7-14-5.3v-4.1c.7,0,1.7-.1,3-.2,1.3-.1,2.7-.2,4-.2,7.6,0,14.5,1.7,20.6,5.2s11.1,10.5,14.8,21.1l27.8,80,22.2-65.7-5-14.3c-2.8-8-5.7-13.5-8.8-16.5s-7.8-4.7-14-5.3v-4.1c.7,0,1.7-.1,3-.2,1.3-.1,2.7-.2,4-.2,7.6,0,14.5,1.7,20.6,5.2s11.1,10.5,14.8,21.1l27.8,80,35.6-104.2h8.9l-47.5,138.9h-4.1l-30.7-87.3-29.8,87.3h-4.1l-40.3-114.7Z"/>
      <path class="st1" d="M325.8,265.6c-9.7-6.2-17.2-14.7-22.5-25.4s-7.9-22.6-7.9-35.8,2.9-26,8.6-37.5,13.5-20.5,23.4-27.2c9.9-6.6,20.6-9.9,32.2-9.9s20.8,1.6,29.1,4.7c8.4,3.1,14.5,7.1,18.5,11.9,2.3,2.9,3.8,6.7,4.4,11.5s.8,11.3.8,19.6h-4.1c-2.6-13.4-7.5-23.3-14.5-29.7s-16.4-9.6-28-9.6-26.9,5.3-36.1,15.8c-9.1,10.5-13.7,27.4-13.7,50.6s1.8,21.1,5.3,30.5,9,17,16.5,22.9,16.8,8.8,28,8.8,18.9-2.4,26.4-7.3c7.5-4.8,14.3-12.1,20.2-21.8l4.1,3.1c-6.4,12.4-14.2,21.2-23.5,26.4s-20.5,7.8-33.5,7.8c-12.7-.1-24-3.2-33.7-9.4Z"/>
    </g>
    <path class="st1" d="M476.8,2.2l5.5,47.7c.7,6.3,5.7,11.2,12,12l47.7,5.5-47.7,5.6c-6.3.7-11.2,5.7-12,12l-5.5,47.7-5.5-47.7c-.7-6.3-5.7-11.2-12-12l-47.7-5.5,47.7-5.5c6.3-.7,11.2-5.7,12-12,0,0,5.5-47.8,5.5-47.8Z"/>
  </g>
</svg>